<svg xmlns="http://www.w3.org/2000/svg" width="360" height="540" viewBox="0 0 360 540" role="img" aria-label="Corporate settings preview">
  <title>Corporate settings preview</title>
  <rect width="360" height="540" rx="18" fill="#f8fafc" stroke="#e2e8f0"/>
  <rect x="20" y="20" width="320" height="50" rx="14" fill="#fff" stroke="#e2e8f0"/>
  <text x="40" y="45" font-family="Verdana, sans-serif" font-size="14" fill="#0f172a">Settings</text>
  <text x="40" y="60" font-family="Verdana, sans-serif" font-size="10" fill="#64748b">Corporate tab</text>

  <rect x="20" y="80" width="320" height="36" rx="18" fill="#fff" stroke="#e2e8f0"/>
  <rect x="26" y="86" width="90" height="24" rx="12" fill="#e2e8f0"/>
  <rect x="122" y="86" width="90" height="24" rx="12" fill="#e2e8f0"/>
  <rect x="218" y="86" width="110" height="24" rx="12" fill="#f97316"/>
  <text x="274" y="102" font-family="Verdana, sans-serif" font-size="10" fill="#fff" text-anchor="middle">Corporate</text>

  <rect x="20" y="130" width="320" height="90" rx="16" fill="#fff" stroke="#e2e8f0"/>
  <text x="40" y="155" font-family="Verdana, sans-serif" font-size="12" fill="#0f172a">Policy mode</text>
  <rect x="40" y="170" width="120" height="24" rx="12" fill="#e2e8f0"/>
  <text x="100" y="186" font-family="Verdana, sans-serif" font-size="10" fill="#334155" text-anchor="middle">Warn</text>
  <rect x="170" y="170" width="140" height="24" rx="12" fill="#f1f5f9"/>
  <text x="240" y="186" font-family="Verdana, sans-serif" font-size="10" fill="#64748b" text-anchor="middle">Managed: off</text>

  <rect x="20" y="230" width="320" height="130" rx="16" fill="#fff" stroke="#e2e8f0"/>
  <text x="40" y="255" font-family="Verdana, sans-serif" font-size="12" fill="#0f172a">Allowed domains</text>
  <rect x="40" y="270" width="200" height="22" rx="10" fill="#f1f5f9"/>
  <rect x="246" y="270" width="74" height="22" rx="10" fill="#1f6feb"/>
  <text x="283" y="285" font-family="Verdana, sans-serif" font-size="10" fill="#fff" text-anchor="middle">Add</text>
  <rect x="40" y="300" width="220" height="12" rx="6" fill="#e2e8f0"/>
  <rect x="40" y="320" width="200" height="12" rx="6" fill="#e2e8f0"/>

  <rect x="20" y="370" width="320" height="130" rx="16" fill="#fff" stroke="#e2e8f0"/>
  <text x="40" y="395" font-family="Verdana, sans-serif" font-size="12" fill="#0f172a">Blocked domains</text>
  <rect x="40" y="410" width="200" height="22" rx="10" fill="#f1f5f9"/>
  <rect x="246" y="410" width="74" height="22" rx="10" fill="#1f6feb"/>
  <text x="283" y="425" font-family="Verdana, sans-serif" font-size="10" fill="#fff" text-anchor="middle">Add</text>
  <rect x="40" y="440" width="210" height="12" rx="6" fill="#e2e8f0"/>
</svg>
