<svg xmlns="http://www.w3.org/2000/svg" width="360" height="540" viewBox="0 0 360 540" role="img" aria-label="Popup main preview">
  <title>Popup main preview</title>
  <rect width="360" height="540" rx="18" fill="#f8fafc" stroke="#e2e8f0"/>
  <rect x="20" y="20" width="320" height="50" rx="14" fill="#fff" stroke="#e2e8f0"/>
  <circle cx="42" cy="45" r="16" fill="#f97316"/>
  <text x="70" y="43" font-family="Verdana, sans-serif" font-size="14" fill="#0f172a">CorgPhish</text>
  <text x="70" y="58" font-family="Verdana, sans-serif" font-size="10" fill="#64748b">Protection dashboard</text>

  <rect x="20" y="90" width="320" height="190" rx="16" fill="#fff" stroke="#e2e8f0"/>
  <rect x="40" y="110" width="90" height="24" rx="12" fill="#e2e8f0"/>
  <text x="85" y="126" font-family="Verdana, sans-serif" font-size="10" fill="#334155" text-anchor="middle">Scanning</text>

  <rect x="40" y="150" width="280" height="60" rx="12" fill="#f1f5f9"/>
  <text x="50" y="175" font-family="Verdana, sans-serif" font-size="12" fill="#0f172a">Status: analyzing active tab</text>
  <text x="50" y="195" font-family="Verdana, sans-serif" font-size="10" fill="#64748b">Signals, lists, ML check</text>

  <rect x="40" y="230" width="90" height="24" rx="12" fill="#dcfce7"/>
  <text x="85" y="246" font-family="Verdana, sans-serif" font-size="10" fill="#166534" text-anchor="middle">risk: low</text>
  <rect x="140" y="230" width="160" height="24" rx="12" fill="#e2e8f0"/>
  <text x="220" y="246" font-family="Verdana, sans-serif" font-size="10" fill="#334155" text-anchor="middle">example.com</text>

  <rect x="20" y="300" width="320" height="90" rx="16" fill="#fff" stroke="#e2e8f0"/>
  <text x="40" y="325" font-family="Verdana, sans-serif" font-size="12" fill="#0f172a">Recommendations</text>
  <rect x="40" y="340" width="260" height="10" rx="5" fill="#e2e8f0"/>
  <rect x="40" y="360" width="240" height="10" rx="5" fill="#e2e8f0"/>

  <rect x="20" y="410" width="320" height="100" rx="16" fill="#fff" stroke="#e2e8f0"/>
  <text x="40" y="435" font-family="Verdana, sans-serif" font-size="12" fill="#0f172a">History</text>
  <rect x="40" y="450" width="280" height="14" rx="7" fill="#f1f5f9"/>
  <rect x="40" y="472" width="260" height="14" rx="7" fill="#f1f5f9"/>
</svg>
